<!-- public/images/papel-picado.svg -->
<svg width="100%" height="60" viewBox="0 0 2400 60" preserveAspectRatio="none" xmlns="http://www.w3.org/2000/svg">
    <defs>
        <pattern id="dot-pattern" x="0" y="0" width="10" height="10" patternUnits="userSpaceOnUse">
            <circle cx="5" cy="5" r="1" fill="rgba(255,255,255,0.2)"/>
        </pattern>
    </defs>

    <!-- Red Flag -->
    <path d="M0 0 H200 L190 50 Q100 60 10 50 L0 0 Z" fill="#E53E3E">
        <rect width="100%" height="100%" fill="url(#dot-pattern)"/>
    </path>
    <!-- Blue Flag -->
    <path d="M200 0 H400 L390 50 Q300 60 210 50 L200 0 Z" fill="#3B82F6">
        <rect width="100%" height="100%" fill="url(#dot-pattern)"/>
    </path>
    <!-- Green Flag -->
    <path d="M400 0 H600 L590 50 Q500 60 410 50 L400 0 Z" fill="#10B981">
        <rect width="100%" height="100%" fill="url(#dot-pattern)"/>
    </path>
    <!-- Yellow Flag -->
    <path d="M600 0 H800 L790 50 Q700 60 610 50 L600 0 Z" fill="#FBBF24">
        <rect width="100%" height="100%" fill="url(#dot-pattern)"/>
    </path>
    <!-- Pink Flag -->
    <path d="M800 0 H1000 L990 50 Q900 60 810 50 L800 0 Z" fill="#EC4899">
        <rect width="100%" height="100%" fill="url(#dot-pattern)"/>
    </path>
    <!-- Orange Flag -->
    <path d="M1000 0 H1200 L1190 50 Q1100 60 1010 50 L1000 0 Z" fill="#F59E0B">
        <rect width="100%" height="100%" fill="url(#dot-pattern)"/>
    </path>
    <!-- Red Flag (Duplicate) -->
    <path d="M1200 0 H1400 L1390 50 Q1300 60 1210 50 L1200 0 Z" fill="#E53E3E">
        <rect width="100%" height="100%" fill="url(#dot-pattern)"/>
    </path>
    <!-- Blue Flag (Duplicate) -->
    <path d="M1400 0 H1600 L1590 50 Q1500 60 1410 50 L1400 0 Z" fill="#3B82F6">
        <rect width="100%" height="100%" fill="url(#dot-pattern)"/>
    </path>
    <!-- Green Flag (Duplicate) -->
    <path d="M1600 0 H1800 L1790 50 Q1700 60 1610 50 L1600 0 Z" fill="#10B981">
        <rect width="100%" height="100%" fill="url(#dot-pattern)"/>
    </path>
    <!-- Yellow Flag (Duplicate) -->
    <path d="M1800 0 H2000 L1990 50 Q1900 60 1810 50 L1800 0 Z" fill="#FBBF24">
        <rect width="100%" height="100%" fill="url(#dot-pattern)"/>
    </path>
    <!-- Pink Flag (Duplicate) -->
    <path d="M2000 0 H2200 L2190 50 Q2100 60 2010 50 L2000 0 Z" fill="#EC4899">
        <rect width="100%" height="100%" fill="url(#dot-pattern)"/>
    </path>
    <!-- Orange Flag (Duplicate) -->
    <path d="M2200 0 H2400 L2390 50 Q2300 60 2210 50 L2200 0 Z" fill="#F59E0B">
        <rect width="100%" height="100%" fill="url(#dot-pattern)"/>
    </path>
</svg>
